<svg viewBox="0 0 72 72" xmlns="http://www.w3.org/2000/svg"><path fill="#D0CFCE" d="m24.5 18-9.16-7.7-3.76.91-4.67 6.15 1.23 8.69 4.27 6.28 3.77 2.42-1.28 7.75 1.47 7.67 3.55 4.26 11.62 5.33 4.21 2.07 2.82-.16 3.49-1.74 10.41-4.51 4.78-3.78 1.85-8.23-1.13-8.18 3.21-2.54 4.89-7.18 1.24-7.09-1.81-5.34-4.95-3.25-4.13 2.66-6.86 6.35-6.5-2.85-9.42-.59-6.86 2.18z"/><path fill="#FFA7C0" d="m62.92 11.39-3.15 2.48-5.06 8.26v9.62s1.5 3.21 3.26 3.48l5.68-5.12 2.81-5.48.85-7.27-1.22-2.63-3.17-3.34zm-51.84.38 3.15 2.5 5.06 8.24v9.63s-1.5 3.21-3.26 3.48l-5.68-5.12-2.81-5.49-.85-7.26 1.22-2.63 3.17-3.35z"/><circle cx="26.78" cy="38.62" r="3"/><path fill="none" stroke="#000" stroke-linecap="round" stroke-linejoin="round" stroke-miterlimit="10" stroke-width="2" d="M37 54.47v3.02m5.06 2.44 10.41-4.51c10.57-5.46 5.35-20.67 5.35-20.67 4.39-1.78 6.83-6.09 6.83-6.09 6.35-12.32-.21-16.74-3.68-18.15a2.84 2.84 0 0 0-3.08.63l-8.33 7.7c-8.37-4.94-16.75-4.94-25.12 0l-8.33-7.7a2.84 2.84 0 0 0-3.08-.63C9.56 11.91 3 16.34 9.35 28.66c0 0 2.44 4.31 6.83 6.1 0 0-5.22 15.2 5.35 20.66l10.4 4.51a7.7 7.7 0 0 0 10.13 0z"/><path fill="none" stroke="#000" stroke-linecap="round" stroke-linejoin="round" stroke-miterlimit="10" stroke-width="2" d="M13.45 14.73s8.08 3.87 5.23 16.52"/><circle cx="47.22" cy="38.62" r="3"/><path fill="none" stroke="#000" stroke-linecap="round" stroke-linejoin="round" stroke-miterlimit="10" stroke-width="2" d="M60.55 14.73s-8.08 3.87-5.23 16.52"/><path d="M34.45 50.27c1.42-.27 3.14-.41 4.97-.17 1.81.24 2.6 1.92 1.47 3.04L39 55.02c-.94.93-2.73.98-3.75.1l-2.02-1.73c-1.24-1.07-.57-2.8 1.23-3.13z"/></svg>